<?xml version="1.0" encoding="UTF-8" standalone="no"?>
<svg
   xmlns:dc="http://purl.org/dc/elements/1.1/"
   xmlns:cc="http://creativecommons.org/ns#"
   xmlns:rdf="http://www.w3.org/1999/02/22-rdf-syntax-ns#"
   xmlns:svg="http://www.w3.org/2000/svg"
   xmlns="http://www.w3.org/2000/svg"
   version="1.1"
   xml:space="preserve"
   width="48.856449"
   height="47.650547"
   viewBox="0 0 48.856449 47.650547"
   >
  <g transform="matrix(1.3333333,0,0,-1.3333333,-0.15469646,666.35692)">
    <g transform="matrix(0.1,0,0,0.1,0.76619052,-0.76619052)">
      <path
        style="fill:#ffffff;fill-opacity:1;fill-rule:evenodd;stroke:none;stroke-width:1.1247226"
        d="m 176.69314,5005.3389 c -101.157553,0 -183.1948217,-82.026 -183.1948217,-183.2173 0,-80.9463 52.4908047,-149.6106 125.2941017,-173.8371 9.16649,-1.6871 12.50692,3.9702 12.50692,8.829 0,4.3527 -0.15746,15.8699 -0.24744,31.1548 -50.961186,-11.0672 -61.713535,24.564 -61.713535,24.564 -8.334194,21.1673 -20.346232,26.8021 -20.346232,26.8021 -16.634648,11.3597 1.259689,11.1348 1.259689,11.1348 18.389215,-1.2935 28.06183,-18.8841 28.06183,-18.8841 16.34222,-27.9944 42.885678,-19.9076 53.323098,-15.2175 1.66459,11.8321 6.39968,19.9076 11.62964,24.4852 -40.68122,4.6226 -83.454425,20.3462 -83.454425,90.5514 0,19.9976 7.141988,36.3623 18.861598,49.1616 -1.889534,4.6339 -8.176733,23.2706 1.799557,48.4868 0,0 15.374958,4.9263 50.37633,-18.7828 14.61015,4.0715 30.28878,6.096 45.86619,6.1747 15.56616,-0.079 31.23355,-2.1032 45.86619,-6.1747 34.97887,23.7091 50.33134,18.7828 50.33134,18.7828 9.99878,-25.2162 3.71158,-43.8529 1.83329,-48.4868 11.74211,-12.7993 18.82786,-29.164 18.82786,-49.1616 0,-70.3851 -42.84069,-85.8726 -83.64562,-90.4052 6.56838,-5.6573 12.42818,-16.8371 12.42818,-33.9216 0,-24.4965 -0.22494,-44.2579 -0.22494,-50.2639 0,-4.9038 3.30668,-10.6061 12.59689,-8.8178 72.74706,24.2828 125.19288,92.9021 125.19288,173.8259 0,101.1913 -82.03727,183.2173 -183.22857,183.2173" />
    </g>
  </g>
</svg>
