<?xml version="1.0" encoding="UTF-8" standalone="no"?>
<svg
   xmlns:dc="http://purl.org/dc/elements/1.1/"
   xmlns:cc="http://creativecommons.org/ns#"
   xmlns:rdf="http://www.w3.org/1999/02/22-rdf-syntax-ns#"
   xmlns:svg="http://www.w3.org/2000/svg"
   xmlns="http://www.w3.org/2000/svg"
   version="1.1"
   id="svg3732"
   xml:space="preserve"
   width="24"
   height="24"
   viewBox="0 0 100 100">
  <g
    id="g3740"
    transform="matrix(1.3333333,0,0,-1.3333333,0,666.65333)">
    <g
      id="g3742"
      transform="scale(0.1)"><path
        d="m 374.59408,5000.0838 c -206.95099,0 -374.78515571,-167.8112 -374.78515571,-374.8311 0,-165.5792 107.38717571,-306.0776 256.33022571,-355.6639 18.75307,-3.4285 25.58701,8.1455 25.58701,18.0857 0,8.9049 -0.32214,32.467 -0.50623,63.7374 -104.25783,-22.6417 -126.25529,50.2537 -126.25529,50.2537 -17.05034,43.3045 -41.6249,54.8325 -41.6249,54.8325 -34.031633,23.24 2.57711,22.7797 2.57711,22.7797 37.62117,-2.646 57.40968,-38.6335 57.40968,-38.6335 33.43338,-57.2716 87.73674,-40.7275 109.08993,-31.1324 3.40545,24.2064 13.09263,40.7276 23.79223,50.0925 -83.2268,9.4801 -170.73343,41.625 -170.73343,185.2527 0,40.9346 14.61129,74.3679 38.58759,100.5762 -3.86567,9.4802 -16.7282,47.5845 3.68158,99.1957 0,0 31.45453,10.0783 103.06133,-38.4035 29.88986,8.3065 61.96564,12.4483 93.83435,12.6094 31.84569,-0.1611 63.89848,-4.3029 93.83434,-12.6094 71.56077,48.4818 102.96928,38.4035 102.96928,38.4035 20.45579,-51.6112 7.59326,-89.7155 3.75061,-99.1957 24.02233,-26.2083 38.51857,-59.6416 38.51857,-100.5762 0,-143.996 -87.64469,-175.6806 -171.12459,-184.9535 13.43778,-11.574 25.42593,-34.4458 25.42593,-69.4209 0,-50.0926 -0.4602,-90.5209 -0.4602,-102.8082 0,-10.0323 6.76492,-21.6983 25.77109,-18.0398 148.828,49.6784 256.12313,190.0617 256.12313,355.618 0,207.0199 -167.83417,374.8311 -374.85419,374.8311"
        style="fill:#1b1817;fill-opacity:1;fill-rule:evenodd;stroke:none;stroke-width:2.30098939"
        id="path3746"/>
    </g>
  </g>
</svg>
